<svg xmlns="http://www.w3.org/2000/svg" xmlns:xlink="http://www.w3.org/1999/xlink" viewBox="0 0 614.48 397.51"><defs><style>.cls-1,.cls-12,.cls-48{fill:none;}.cls-1{stroke:#b1d3f1;stroke-width:2.89px;stroke-dasharray:22.81 7.6;}.cls-1,.cls-48{stroke-miterlimit:10;}.cls-2{fill:#b1d3f1;}.cls-3{fill:#82b4e2;}.cls-4{fill:#e4effa;}.cls-5{fill:#d9e1e4;}.cls-6{fill:#bbc2c7;}.cls-7{fill:#fdc314;}.cls-8{fill:#3bb7d5;}.cls-9{fill:#195771;}.cls-10{fill:#d1dbed;opacity:0.45;}.cls-11{fill:#88bfe9;}.cls-12{stroke:#acd5f3;stroke-width:4.12px;}.cls-13{fill:#fcc031;}.cls-14{fill:#fff;}.cls-15{fill:#89bedb;}.cls-16{fill:#9ad6eb;}.cls-17{fill:#1a2542;}.cls-18{fill:#377183;}.cls-19{fill:#4fbdc2;}.cls-20{fill:#3d7baa;}.cls-21{fill:#76b1e1;}.cls-22{fill:#e6b09d;}.cls-23{fill:#153f59;}.cls-24{fill:#f9c3ad;}.cls-25{fill:#171813;}.cls-26{fill:#316193;}.cls-27{fill:#b6c2c9;}.cls-28{fill:#889ca7;}.cls-29{fill:#e4eef3;}.cls-30{fill:#36a9b6;}.cls-31{fill:#dce5ea;}.cls-32{fill:#cfdae9;}.cls-33{fill:#aebddc;}.cls-34{fill:#1b4967;}.cls-35{fill:#b3c0c7;}.cls-36{fill:#d5e2eb;}.cls-37{fill:#8699a4;}.cls-38{fill:#d7dfe2;}.cls-39{fill:#b0bede;}.cls-40{fill:#282824;}.cls-41{fill:#d1dbea;}.cls-42{fill:#d0dee6;}.cls-43{fill:#f0f9fe;}.cls-44{fill:#acd5f3;}.cls-45{fill:#87bbd8;}.cls-46{fill:url(#New_Gradient_Swatch_83);}.cls-47{fill:#f8aa14;}.cls-48{stroke:#f4da80;stroke-width:1.44px;}.cls-49{fill:#366990;}.cls-50{fill:#fcbe16;}.cls-51{fill:#f4ab0d;}.cls-52{fill:#ffcf42;}</style><radialGradient id="New_Gradient_Swatch_83" cx="102.63" cy="111.71" r="326.36" gradientTransform="translate(0 -5.28) scale(1 1.03)" gradientUnits="userSpaceOnUse"><stop offset="0" stop-color="#d1e9e9"/><stop offset="1" stop-color="#69c2c3"/></radialGradient></defs><g id="Layer_2" data-name="Layer 2"><g id="Layer_1-2" data-name="Layer 1"><path class="cls-1" d="M84.36,35.56s50.92,17.29-31.77,52.82c0,0-104.27,29.84-15.06,59.33,141.19,42.56-43.14,129.35,0,26.7s163.1-85.27,163.1-85.27"/><polygon class="cls-2" points="23.54 13.54 80.06 5.92 71.01 18.95 23.54 13.54"/><polygon class="cls-2" points="55.62 42.59 64.47 28.26 23.54 13.54 55.62 42.59"/><polygon class="cls-3" points="71.01 18.95 78.63 33.4 23.54 13.54 71.01 18.95"/><rect class="cls-4" x="299.89" width="83.92" height="82.46"/><rect class="cls-5" x="314.28" y="19.23" width="55.13" height="2.34"/><rect class="cls-5" x="314.28" y="14.25" width="17.86" height="2.34"/><rect class="cls-5" x="315.35" y="30.6" width="2.94" height="3.04"/><rect class="cls-5" x="323.69" y="30.6" width="2.94" height="3.04"/><rect class="cls-5" x="332.04" y="30.6" width="2.94" height="3.04"/><rect class="cls-6" x="340.38" y="30.6" width="2.94" height="3.04"/><rect class="cls-6" x="348.72" y="30.6" width="2.94" height="3.04"/><rect class="cls-7" x="357.06" y="30.6" width="2.94" height="3.04"/><rect class="cls-7" x="365.41" y="30.6" width="2.94" height="3.04"/><rect class="cls-6" x="315.35" y="38.19" width="2.94" height="3.04"/><rect class="cls-6" x="323.69" y="38.19" width="2.94" height="3.04"/><rect class="cls-6" x="332.04" y="38.19" width="2.94" height="3.04"/><rect class="cls-6" x="340.38" y="38.19" width="2.94" height="3.04"/><rect class="cls-6" x="348.72" y="38.19" width="2.94" height="3.04"/><rect class="cls-7" x="357.06" y="38.19" width="2.94" height="3.04"/><rect class="cls-7" x="365.41" y="38.19" width="2.94" height="3.04"/><rect class="cls-6" x="315.35" y="45.78" width="2.94" height="3.04"/><rect class="cls-6" x="323.69" y="45.78" width="2.94" height="3.04"/><rect class="cls-8" x="332.04" y="45.78" width="2.94" height="3.04"/><rect class="cls-8" x="340.38" y="45.78" width="2.94" height="3.04"/><rect class="cls-6" x="348.72" y="45.78" width="2.94" height="3.04"/><rect class="cls-7" x="357.06" y="45.78" width="2.94" height="3.04"/><rect class="cls-7" x="365.41" y="45.78" width="2.94" height="3.04"/><rect class="cls-9" x="315.35" y="53.37" width="2.94" height="3.04"/><rect class="cls-6" x="323.69" y="53.37" width="2.94" height="3.04"/><rect class="cls-6" x="332.04" y="53.37" width="2.94" height="3.04"/><rect class="cls-6" x="340.38" y="53.37" width="2.94" height="3.04"/><rect class="cls-6" x="348.72" y="53.37" width="2.94" height="3.04"/><rect class="cls-7" x="357.06" y="53.37" width="2.94" height="3.04"/><rect class="cls-7" x="365.41" y="53.37" width="2.94" height="3.04"/><rect class="cls-6" x="315.35" y="60.96" width="2.94" height="3.04"/><rect class="cls-6" x="323.69" y="60.96" width="2.94" height="3.04"/><rect class="cls-6" x="332.04" y="60.96" width="2.94" height="3.04"/><rect class="cls-6" x="340.38" y="60.96" width="2.94" height="3.04"/><rect class="cls-6" x="348.72" y="60.96" width="2.94" height="3.04"/><rect class="cls-7" x="357.06" y="60.96" width="2.94" height="3.04"/><rect class="cls-7" x="365.41" y="60.96" width="2.94" height="3.04"/><rect class="cls-6" x="315.35" y="68.55" width="2.94" height="3.04"/><rect class="cls-6" x="323.69" y="68.55" width="2.94" height="3.04"/><rect class="cls-6" x="332.04" y="68.55" width="2.94" height="3.04"/><rect class="cls-6" x="340.38" y="68.55" width="2.94" height="3.04"/><rect class="cls-6" x="348.72" y="68.55" width="2.94" height="3.04"/><rect class="cls-5" x="357.06" y="68.55" width="2.94" height="3.04"/><rect class="cls-5" x="365.41" y="68.55" width="2.94" height="3.04"/><path class="cls-10" d="M317.22,308c95.44,1.06,158.75,15.65,213.2,23.57,45.07,6.56,91.39,22.82,83.09,30.16s-49.12,13.74-103.67,19.69c-54.89,5.83-123.55,11.29-196.55,14.22C171,402,38.39,391.6,6.67,368.26-25.31,345.05,122.2,305.17,317.22,308Z"/><path class="cls-4" d="M582.23,119.83a4.54,4.54,0,0,1-4.47,4.61H373.22a4.54,4.54,0,0,1-4.47-4.61V79.5a4.54,4.54,0,0,1,4.47-4.61H577.76a4.54,4.54,0,0,1,4.47,4.61Z"/><path class="cls-11" d="M419.27,74.89h-46a4.54,4.54,0,0,0-4.47,4.61v40.33a4.54,4.54,0,0,0,4.47,4.61h46Z"/><line class="cls-12" x1="432.3" y1="90.44" x2="482.75" y2="90.44"/><line class="cls-12" x1="488.18" y1="90.44" x2="514.01" y2="90.44"/><line class="cls-12" x1="461.66" y1="100.5" x2="481.78" y2="100.5"/><line class="cls-12" x1="470.45" y1="110.57" x2="481.78" y2="110.57"/><line class="cls-12" x1="451.68" y1="100.5" x2="456.29" y2="100.5"/><line class="cls-12" x1="432.45" y1="100.5" x2="447.09" y2="100.5"/><line class="cls-12" x1="432.45" y1="110.57" x2="465.98" y2="110.57"/><line class="cls-12" x1="486.99" y1="100.5" x2="511.98" y2="100.5"/><line class="cls-12" x1="485.95" y1="110.57" x2="512.99" y2="110.57"/><path class="cls-13" d="M533.07,86.11a12.69,12.69,0,1,0,12.31,12.68A12.51,12.51,0,0,0,533.07,86.11Z"/><polygon class="cls-14" points="538.33 102.58 534.19 98.31 534.19 90.73 531.96 90.73 531.96 99.27 536.75 104.22 538.33 102.58"/><path class="cls-8" d="M563.08,50a17.79,17.79,0,0,0-17.51,18.05c0,10,17.51,37.33,17.51,37.33S580.6,78.07,580.6,68.09A17.79,17.79,0,0,0,563.08,50Zm0,24.4a5.35,5.35,0,1,1,5.19-5.34A5.26,5.26,0,0,1,563.08,74.44Z"/><path class="cls-15" d="M341.58,294l-4.21,6.61,35.35,11.68s2.37-2.33-6.31-7C356.31,299.86,341.58,294,341.58,294Z"/><path class="cls-15" d="M335.3,294l4.21,6.61-35.35,11.68s-2.36-2.33,6.31-7C320.57,299.86,335.3,294,335.3,294Z"/><rect class="cls-15" x="334.75" y="274.33" width="7.39" height="27.12"/><path class="cls-16" d="M342.06,295.41l-3.61,6.32,30.26,11.14s2-2.22-5.4-6.69A232.59,232.59,0,0,0,342.06,295.41Z"/><path class="cls-16" d="M334.83,295.41l3.6,6.32-30.26,11.14s-2-2.22,5.4-6.69A233.57,233.57,0,0,1,334.83,295.41Z"/><path class="cls-17" d="M365.29,315.38a2.57,2.57,0,1,0,2.56-2.65A2.6,2.6,0,0,0,365.29,315.38Z"/><path class="cls-17" d="M306.65,315.38a2.57,2.57,0,1,0,2.57-2.65A2.6,2.6,0,0,0,306.65,315.38Z"/><path class="cls-18" d="M371.5,315.38a2.57,2.57,0,1,0,2.57-2.65A2.6,2.6,0,0,0,371.5,315.38Z"/><path class="cls-18" d="M300.44,315.38a2.57,2.57,0,1,0,2.57-2.65A2.6,2.6,0,0,0,300.44,315.38Z"/><rect class="cls-18" x="335.84" y="264.39" width="5.4" height="9.75"/><path class="cls-18" d="M331.78,259.24a5.35,5.35,0,0,0,5.27,5.43h3a5.35,5.35,0,0,0,5.27-5.43h0a5.35,5.35,0,0,0-5.27-5.43h-3a5.35,5.35,0,0,0-5.27,5.43Z"/><path class="cls-19" d="M298.38,254.27c-.13-.64-.21-4.65-.21-5.34,0-4.39,2.75-7.94,6.14-7.94h68.45c3.39,0,6.14,3.55,6.14,7.94,0,.69-.07,4.7-.2,5.34Z"/><path class="cls-18" d="M379.53,256.42c0,1.34-.76,2.43-1.7,2.43H299.24c-.94,0-1.7-1.09-1.7-2.43h0c0-1.34.76-2.43,1.7-2.43h78.59c.94,0,1.7,1.09,1.7,2.43Z"/><path class="cls-20" d="M325.35,240.77s44,.1,61,.36c11.75.19,12.82-17.09,8.19-19.69-14.08-7.9-58-12-58-12l-29.88,28.29S308.35,237.72,325.35,240.77Z"/><path class="cls-21" d="M366.85,148.16s11.32-3.26,16.24,12c7.56,23.38,6.89,44.82,5.84,49.4-.48,2.1-1.94,9.37-14.58,9.65-5.13.11-3.08-11.22-3.08-11.22a252,252,0,0,1-6.79-25.9C361,165.79,366.85,148.16,366.85,148.16Z"/><path class="cls-11" d="M375.8,149.48l-29-9.68-22-1.52-24.07,7.51s-7.88,5.6-.57,23.59,4.5,46.18,4.5,46.18l62.1,2.05s1.18-26.06,5.3-52.12C373,159.67,373.1,152.82,375.8,149.48Z"/><path class="cls-21" d="M333.2,216.35h3.17a279.79,279.79,0,0,0-.49-76.2L333,141.91C333.82,167.56,332.45,193.2,333.2,216.35Z"/><path class="cls-22" d="M345.54,146.85c-.43,3.47-3.17,6.46-6.05,6.6h-8.2c-2.89-.14-5.63-3.13-6.06-6.6l-2-17.12c-.45-3.42,1.52-10.29,5.89-12.32a15.28,15.28,0,0,1,12.56,0c4.36,2,6.34,8.9,5.89,12.32Q346.55,138.3,345.54,146.85Z"/><polygon class="cls-21" points="335.06 153.88 329.85 162.69 320.31 150.38 321.81 143.91 324.9 141.28 324.94 146.16 335.06 153.88"/><polygon class="cls-21" points="335.69 153.88 340.9 162.69 349.78 151.22 348.32 144.19 346.1 141.23 345.2 146.99 335.69 153.88"/><path class="cls-23" d="M334.15,106.55a6.51,6.51,0,0,0-5.49,3.06H326.4a5.17,5.17,0,0,0-5.09,5.25v13h3.58v-5.26a3.64,3.64,0,0,1,3.58-3.69h1a6.67,6.67,0,0,0,6.57-6.77v-5.54Z"/><path class="cls-22" d="M327.8,132.64a3.16,3.16,0,0,1-3.11,3.21h-.26a3.17,3.17,0,0,1-3.12-3.21v-3.9a3.17,3.17,0,0,1,3.12-3.21h.26a3.13,3.13,0,0,1,2.85,1.91"/><path class="cls-23" d="M331.36,111.7v-5.15h10.78a6.66,6.66,0,0,1,6.56,6.77v5.14H337.92A6.67,6.67,0,0,1,331.36,111.7Z"/><path class="cls-24" d="M347.78,137.56c0,2.69-2,7.25-5.31,8.69a18.59,18.59,0,0,1-14.31,0c-3.31-1.44-5.29-6-5.31-8.69V114.65c0-2.71,2.6-5,5.84-5.05h13.25c3.23.06,5.86,2.33,5.84,5.05Z"/><path class="cls-23" d="M337.87,106.55a6.52,6.52,0,0,1,5.49,3.06h2.25a5.17,5.17,0,0,1,5.09,5.25v13h-3.58v-5.26a3.64,3.64,0,0,0-3.58-3.69H339a6.67,6.67,0,0,1-6.56-6.77v-5.54Z"/><path class="cls-24" d="M344.26,128.74a3.16,3.16,0,0,1,3.11-3.21h.26a3.16,3.16,0,0,1,3.11,3.21v3.9a3.16,3.16,0,0,1-3.11,3.21h-.26a3.12,3.12,0,0,1-2.85-1.91"/><path class="cls-23" d="M332.4,113a7.31,7.31,0,0,0,.13-1.33v-5.15h-4.65a6.67,6.67,0,0,0-6.57,6.77v5.14H326a6.55,6.55,0,0,0,1.34-.14A6.69,6.69,0,0,1,332.4,113Z"/><path class="cls-25" d="M274.77,327.55c-.68.85-.18,3.08-.18,3.08s11.84,1.36,15.66.43a20,20,0,0,0,4.24-2.05c.27-.16.73-1.09,1-1.25.48-.29.73.2,1.14-.07a12.43,12.43,0,0,0,1.8-1.29c1.05-5.6-.34-7.86-.34-7.86s-10.09-3.46-12-1.05C281.65,323.17,276.25,325.7,274.77,327.55Z"/><path class="cls-25" d="M385.51,321.45l.82,9.23,9,.91s.62-1.24,1.38-1.16,1.34,1.43,2.21,1.52l4.81.48,18,1.82s.59-1.86.16-2.57a8.77,8.77,0,0,0-2.64-1.49c-4.5-1.81-17.35-7.33-19.22-12.13C397.69,312.23,385.51,321.45,385.51,321.45Z"/><path class="cls-24" d="M372,204.62l-30.3,12.76s21.49,3.16,34.93.34C385.68,215.81,372.37,204.22,372,204.62Z"/><path class="cls-20" d="M303.18,224.06s-2.91,28.52-2.49,43.6c.31,11.38.34,33.18-2.29,51.76-.16,1.14-14.25.28-14.25.28s-5.06-70.72-6.56-82.36S280.46,217.29,303.18,224.06Z"/><path class="cls-26" d="M391.82,230.93s-4.54,7.4-17,9.15c-4.5.63,7.26,82.78,7.26,82.78l18.41-6.07-3.56-90.85Z"/><path class="cls-26" d="M341.05,240.08s-24.06,3.54-40.12,5.28c-5.89.63-11-16.36-11.67-17.1a11.91,11.91,0,0,0-8.39-4.22c3.48-3.88,21.49-7.48,40.32-12s21.7-1.69,21.7-1.69Z"/><path class="cls-20" d="M321.19,212c-18.83,4.55-36.84,8.15-40.32,12a11.91,11.91,0,0,1,8.39,4.22c.19.2,1.27,5.65,2.05,7.6-3.07-5.7,41.18-21.79,50.74-26C340.26,209.32,335.06,208.66,321.19,212Z"/><polygon class="cls-26" points="300.52 239.87 298.68 295.38 296.83 308.25 296.63 295.38 297.04 287.35 292.74 274.9 290.49 245.99 293.76 247.25 293.35 234.59 300.52 239.87"/><path class="cls-20" d="M391.2,224l4.5,1.26,1.64,66.7-9.41,23.85,4.5-16.25L390.59,266S384,282.29,384,281.45s5.52-35.25,5.52-35.25-6.14,5.28-5.52,5.07S387.72,227.21,391.2,224Z"/><path class="cls-11" d="M314,146.06s-9.67-7.81-19.13,6.69C281,174,275,196.6,272.82,203.14c-1.69,5-.76,19.2,4.91,25.05,1.36,1.41,9.55.28,9.55.28l5.38-3.83-2.26-4.46-.12-3.53s6.87-17.09,15.32-33.25S314,146.06,314,146.06Z"/><path class="cls-24" d="M290.4,211l31.4,1.69S291.55,227,290.56,224.56C284.89,210.59,290.4,211,290.4,211Z"/><path class="cls-24" d="M307.67,210c1.84-.9,1.67-.92,1.67-.92a7.55,7.55,0,0,0,4.11,2.44c1.21.19,5.1.24,5.1.24l5.78.15,2.69-.16a4.84,4.84,0,0,1,1.91.06c1.17.78.17,1.4.17,1.4l-10.36,1.51,9.95,1.27s1.26.39,1.32,1.08-.37.63-.37.63L318.08,219l5.07,1.25s1.21.4,1.3,1.08.15.94.15.94L314,221.2S305.84,211,307.67,210Z"/><path class="cls-24" d="M319.16,216.64l7,1.31a5.7,5.7,0,0,1,2.29.64,1,1,0,0,1,.34,1.34L318.08,219Z"/><path class="cls-27" d="M362.81,222.29a.43.43,0,0,1,0-.07l0-2H301v2a.15.15,0,0,0,0,.07l.21.38c1,1.77,2.94,2.08,5.11,2.08h51.22c2.17,0,4.06-.31,5.11-2.08Z"/><rect class="cls-28" x="311.41" y="220.65" width="40.96" height="1.44"/><path class="cls-29" d="M362.78,220.4l.16-41.82a2,2,0,0,0-1.93-2h-57.9a2,2,0,0,0-1.95,2L301,220.4Z"/><path class="cls-27" d="M335.72,198.49a3.75,3.75,0,1,1-3.73-3.86A3.78,3.78,0,0,1,335.72,198.49Z"/><polygon class="cls-21" points="286.32 227.2 284.17 213.01 287.74 209.22 295.67 210.52 294.05 226.24 286.32 227.2"/><polygon class="cls-11" points="382.6 217.02 383.42 211.79 373.39 202.51 367.97 205.03 375.06 219.04 382.6 217.02"/><path class="cls-18" d="M119.2,291a12.27,12.27,0,0,1-8.27-3.08c-4.15-3.72-6-10.35-5.35-19.69.41-6.3,2.81-12.68,5.36-19.44,4.29-11.37,9.15-24.25,6.61-41.29l4.72-.75c2.74,18.34-2.59,32.47-6.87,43.82-2.52,6.68-4.69,12.44-5.05,18-.49,7.57.78,13,3.67,15.6a7.72,7.72,0,0,0,6.31,1.83l1,4.83A10.78,10.78,0,0,1,119.2,291Z"/><path class="cls-15" d="M155.82,330.07l4.65,7.31-39.07,12.9s-2.61-2.57,7-7.74C139.54,336.52,155.82,330.07,155.82,330.07Z"/><path class="cls-15" d="M162.75,330.07l-4.65,7.31,39.07,12.9s2.61-2.57-7-7.74C179,336.52,162.75,330.07,162.75,330.07Z"/><rect class="cls-15" x="155.2" y="308.31" width="8.16" height="29.97"/><path class="cls-16" d="M155.29,331.61l4,7L125.83,350.9s-2.23-2.46,6-7.39A257.18,257.18,0,0,1,155.29,331.61Z"/><path class="cls-16" d="M163.28,331.61l-4,7,33.44,12.31s2.23-2.46-6-7.39A257.18,257.18,0,0,0,163.28,331.61Z"/><path class="cls-17" d="M129.62,353.67a2.84,2.84,0,1,1-2.84-2.93A2.88,2.88,0,0,1,129.62,353.67Z"/><path class="cls-17" d="M194.42,353.67a2.84,2.84,0,1,1-2.84-2.93A2.88,2.88,0,0,1,194.42,353.67Z"/><path class="cls-18" d="M122.75,353.67a2.84,2.84,0,1,1-2.84-2.93A2.88,2.88,0,0,1,122.75,353.67Z"/><path class="cls-18" d="M201.29,353.67a2.84,2.84,0,1,1-2.84-2.93A2.88,2.88,0,0,1,201.29,353.67Z"/><rect class="cls-18" x="156.19" y="297.32" width="5.97" height="10.78"/><path class="cls-18" d="M166.64,291.63a5.9,5.9,0,0,1-5.82,6h-3.28a5.91,5.91,0,0,1-5.83-6h0a5.91,5.91,0,0,1,5.83-6h3.28a5.9,5.9,0,0,1,5.82,6Z"/><path class="cls-19" d="M203.56,286.14c.15-.71.23-5.14.23-5.9,0-4.85-3-8.78-6.79-8.78H121.36c-3.75,0-6.79,3.93-6.79,8.78,0,.76.09,5.19.23,5.9Z"/><path class="cls-18" d="M113.87,288.52c0,1.48.84,2.68,1.88,2.68h86.86c1,0,1.88-1.2,1.88-2.68h0c0-1.49-.84-2.69-1.88-2.69H115.75c-1,0-1.88,1.2-1.88,2.69Z"/><path class="cls-19" d="M118.11,241.11c1.87.14,13.72.36,15.76.38,13,.16,24.16-2.35,24.78-5.64A117.57,117.57,0,0,0,159,194.4c-.55-3.29-11.9-5.8-25.15-5.64-2.09,0-14.19.25-16.09.39A115.41,115.41,0,0,1,118.11,241.11Z"/><path class="cls-18" d="M116.33,189.15c-1.46,0-2.47.73-2.27,1.59a115.48,115.48,0,0,1,.41,48.79c-.19.86.82,1.57,2.24,1.59h0c1.42,0,2.74-.67,2.92-1.53a115.55,115.55,0,0,0-.31-48.91c-.2-.87-1.54-1.55-3-1.53Z"/><path class="cls-30" d="M115.75,241.08a31.09,31.09,0,0,0,3.4.24c2.83,0,5.74-2.54,6.3-5.78a115.67,115.67,0,0,0-.18-40.82c-.59-3.24-3.57-5.8-6.46-5.77a32.76,32.76,0,0,0-3.47.24A115.39,115.39,0,0,1,115.75,241.08Z"/><path class="cls-31" d="M141.06,119h-6.41v3.38A7.82,7.82,0,0,1,141.06,119Z"/><path class="cls-31" d="M142.94,119v9.32a8,8,0,0,1-7.91,8.15h-.38v14.37H162.9V119Z"/><path class="cls-32" d="M158.42,139.33s-11.07,4.07-.44,36.77,17.7,28.74,17.7,28.74l8.78-.87,16.85-20.6-9.07-8.18-1.83.75a4.54,4.54,0,0,1-2.62-3.25c-.27-2.25-4.52-11.66-7.73-30.87C178.57,133,160.54,138.53,158.42,139.33Z"/><path class="cls-24" d="M198.91,183.76s21.84,11.5,35.59-10.76c4.1-6.62,2.35,1,.11,8.24S218.8,204.88,203.38,206s-21.31.21-24.2-5.29S198.91,183.76,198.91,183.76Z"/><path class="cls-33" d="M180.15,178.53l5.54-3.7,2.29-1.35a4.91,4.91,0,0,0,2.43,2.47l-4.62,2-5,3.34-5.2,6.45Z"/><path class="cls-32" d="M178.84,233.27l-41.35-.93L120.3,173s-7.87-35.75,6.83-36.34c21.36-.86,49.39-.47,49.39-.47S190.92,149.07,178.84,233.27Z"/><path class="cls-33" d="M164,230.06l4.86.74a271.12,271.12,0,0,0-8.24-93l-4,1.36A264.66,264.66,0,0,1,164,230.06Z"/><path class="cls-23" d="M246.93,359.3s-4,6.39-6.08,2.47c-6.16-11.76-11.72-48.89-12.07-64.12-.47-20.32-1.36-32.71-1.36-32.71l19.82-7.41Z"/><path class="cls-23" d="M177.38,232.84l70,24.69L229,268.09s-72.15,13.05-73.44-14.56C154.47,230.3,177.38,232.84,177.38,232.84Z"/><path class="cls-34" d="M222.07,359.88s-3.62,3.42-5.68-.5c-6.16-11.76-16.27-43-16.62-58.24-.46-20.32,2.79-34.45,2.79-34.45l20.26-7.26Z"/><path class="cls-34" d="M155.69,233.63l66.7,25.95-18.27,10.25s-67.69,13.05-69-14.56S155.69,233.63,155.69,233.63Z"/><path class="cls-34" d="M133.93,256.82c-.17,1.91.91,8.25,3,10.81,6.32,7.86,21.27,5.23,33.2,5.23.66,0,4-9.6,4-9.6l5-31.38-41.82.74A215.57,215.57,0,0,0,133.93,256.82Z"/><path class="cls-24" d="M201.87,213.61l15.32-2.83s2.38-.27,2.49,1.43c.14,2.24-.25,9.56-.25,9.56L216.68,220l-3.94,2.48-4.58-6.25a11.35,11.35,0,0,1-4.33,0C203.17,216,201.87,213.61,201.87,213.61Z"/><path class="cls-24" d="M164.3,209.13l40.54,4.64s-21.74,11.46-31.7,11.53a86.08,86.08,0,0,1-19.3-2.29Z"/><path class="cls-33" d="M144.31,165.8l20.26,39.52-1.16,3.21,3.11.59-9.46,15.52-14.84-3.49-26.7-54.53s-5.62-16.47,7.12-29C129,131.31,142.52,162.64,144.31,165.8Z"/><path class="cls-32" d="M149.46,218.81s9.58-7.56,14.45-11.68l-.5,1.4,3.11.59-3.31,5.34-5.74,6.89-3.3-1.24,1.25-2.42Z"/><path class="cls-23" d="M162.22,109.06a5.09,5.09,0,0,1-5,5.17H138.28a5.09,5.09,0,0,1-5-5.17h0a5.09,5.09,0,0,1,5-5.17h18.93a5.09,5.09,0,0,1,5,5.17Z"/><path class="cls-23" d="M158.75,118a9.41,9.41,0,0,1-9.26,9.54h-9.88a9.41,9.41,0,0,1-9.26-9.54h0a9.41,9.41,0,0,1,9.26-9.55h9.88a9.41,9.41,0,0,1,9.26,9.55Z"/><path class="cls-24" d="M166.18,133.3V103.45c0-4.75-3.74,0-8.35,0h-4.45a8.49,8.49,0,0,0-8.36,8.61V133.3Z"/><path class="cls-24" d="M148.72,118.73a3.74,3.74,0,0,1-3.67,3.78h0a3.73,3.73,0,0,1-3.67-3.78h0a3.73,3.73,0,0,1,3.67-3.79h0a3.74,3.74,0,0,1,3.67,3.79Z"/><path class="cls-24" d="M163.76,124a2.13,2.13,0,0,0,2.06,2.19h1.71a2.13,2.13,0,0,0,2.06-2.19s-3.76-11.33-4.89-11.33a3.59,3.59,0,0,0-.94,2.19Z"/><path class="cls-23" d="M154.49,131.67c-8.35,0-9.22-2.64-9.46-5.66,0,0-2.23,7.56-2.23,10v2.71c0,5.25,5.23,9.51,11.69,9.51h11.69V131.67Z"/><path class="cls-23" d="M166.18,126.13H159.5a5.68,5.68,0,0,0-5.37,7.17h12.05Z"/><path class="cls-24" d="M157.55,132.15v1.92a1,1,0,0,0,.93,1h5.41a1,1,0,0,0,.93-1v-1.92Z"/><path class="cls-23" d="M163.3,98.15H146.17a3.4,3.4,0,0,0-3.34,3.45v6.88H163.3Z"/><path class="cls-23" d="M173.91,103.3a5.13,5.13,0,0,1-5,5.2h-11.6a5.13,5.13,0,0,1-5-5.2h0a5.12,5.12,0,0,1,5-5.2h11.6a5.12,5.12,0,0,1,5,5.2Z"/><rect class="cls-23" x="144.83" y="106" width="4.63" height="12.56"/><rect class="cls-23" x="146.27" y="100.59" width="13.62" height="14.79"/><path class="cls-24" d="M149.46,115.58a7,7,0,0,1,6.89-7.11h3.55c3.81,0,5.85,3.19,5.85,7.11h0a7,7,0,0,1-6.89,7.11h-2.51a7,7,0,0,1-6.89-7.11Z"/><path class="cls-24" d="M232.83,180.73s-3.28-8.13-2.11-10.33,6-10,6-10l1.42-1.87s2.87.44-.44,5.63-.34,3.55-.34,3.55l4.75-3.54,6.14-3.87,2.52-2.07s1.34-1.29,1.91-1.31c1.66-.09,1.1,1.24,1.1,1.24l-9.1,8.89,10.58-5.88s1.48-.53,2,.11.07.88.07.88l-10.43,9.52,5.79-2.41s1.46-.48,2,.12.77.81.77.81l-21.27,12.28Z"/><path class="cls-24" d="M246.39,168.63l7.67-3.7a6.81,6.81,0,0,1,2.67-1A1.12,1.12,0,0,1,258,165l-11,6.74Z"/><path class="cls-34" d="M228.57,366.19a4.82,4.82,0,0,1,.08,2.21s-6.25,1.06-8.26.42a9.12,9.12,0,0,1-2.21-1.44c-.14-.11-.38-.78-.52-.89s-.38.15-.6,0a7.25,7.25,0,0,1-.94-.91c-.51-4,.23-5.65.23-5.65s5.34-2.55,6.32-.84C225,363.1,227.8,364.87,228.57,366.19Z"/><path class="cls-23" d="M240.18,361.12l.89,5.83h4.73s.26-.82.66-.82.78.82,1.23.82h12a3.54,3.54,0,0,0-.05-1.64,4,4,0,0,0-1.45-.78c-2.45-.87-9.84-2.75-11.49-5.46C245.47,357,240.18,361.12,240.18,361.12Z"/><path class="cls-35" d="M202.46,222.19l0-.06,0-2H284.6v2s0,0,0,.06l-.21.38c-1.05,1.78-2.95,2.1-5.12,2.1H207.79c-2.17,0-4.06-.32-5.12-2.1Z"/><path class="cls-36" d="M222.25,222.54s0,0,0,.05l-.2.31a3.23,3.23,0,0,1-1.2,1H208.36c-2.09,0-3.91-.25-4.93-1.69l-.19-.31,0-.05,0-1h19Z"/><rect class="cls-37" x="233.34" y="220.55" width="41.05" height="1.44"/><path class="cls-38" d="M222.71,220l10.65-41.62a2.7,2.7,0,0,1,2.43-2h57.64a1.48,1.48,0,0,1,1.42,2L284.2,220Z"/><path class="cls-35" d="M255.3,198.2c-.54,2.13.69,3.85,2.75,3.85a5.21,5.21,0,0,0,4.71-3.85c.55-2.12-.68-3.85-2.74-3.85A5.23,5.23,0,0,0,255.3,198.2Z"/><path class="cls-18" d="M513.39,293.07a11.14,11.14,0,0,0,7.48-2.79c3.76-3.37,5.38-9.36,4.84-17.81-.37-5.71-2.55-11.48-4.86-17.6-3.88-10.28-8.27-21.94-6-37.36l-4.28-.68c-2.47,16.6,2.35,29.38,6.22,39.66,2.28,6,4.25,11.25,4.57,16.27.45,6.85-.7,11.74-3.32,14.12a7,7,0,0,1-5.71,1.66l-.87,4.36A9.23,9.23,0,0,0,513.39,293.07Z"/><path class="cls-15" d="M480.25,328.43,476,335l35.35,11.68s2.36-2.33-6.31-7C495,334.27,480.25,328.43,480.25,328.43Z"/><path class="cls-15" d="M474,328.43l4.21,6.61-35.35,11.68s-2.37-2.33,6.31-7C459.24,334.27,474,328.43,474,328.43Z"/><rect class="cls-15" x="473.42" y="308.74" width="7.39" height="27.12"/><path class="cls-16" d="M480.72,329.82l-3.6,6.31,30.26,11.15s2-2.22-5.4-6.69A233.57,233.57,0,0,0,480.72,329.82Z"/><path class="cls-16" d="M473.5,329.82l3.6,6.31-30.27,11.15s-2-2.22,5.41-6.69A233.57,233.57,0,0,1,473.5,329.82Z"/><path class="cls-17" d="M504,349.79a2.57,2.57,0,1,0,2.56-2.65A2.6,2.6,0,0,0,504,349.79Z"/><path class="cls-17" d="M445.32,349.79a2.57,2.57,0,1,0,2.57-2.65A2.6,2.6,0,0,0,445.32,349.79Z"/><path class="cls-18" d="M510.17,349.79a2.57,2.57,0,1,0,2.57-2.65A2.6,2.6,0,0,0,510.17,349.79Z"/><path class="cls-18" d="M439.1,349.79a2.57,2.57,0,1,0,2.57-2.65A2.6,2.6,0,0,0,439.1,349.79Z"/><rect class="cls-18" x="474.5" y="298.8" width="5.4" height="9.75"/><path class="cls-18" d="M470.45,293.65a5.35,5.35,0,0,0,5.27,5.43h3a5.35,5.35,0,0,0,5.27-5.43h0a5.35,5.35,0,0,0-5.27-5.44h-3a5.35,5.35,0,0,0-5.27,5.44Z"/><path class="cls-19" d="M437,288.68c-.13-.64-.2-4.65-.2-5.34,0-4.39,2.75-7.94,6.14-7.94h68.45c3.39,0,6.14,3.55,6.14,7.94,0,.69-.08,4.7-.2,5.34Z"/><path class="cls-18" d="M518.2,290.83c0,1.34-.76,2.43-1.7,2.43H437.91c-.94,0-1.7-1.09-1.7-2.43h0c0-1.34.76-2.43,1.7-2.43H516.5c.94,0,1.7,1.09,1.7,2.43Z"/><path class="cls-19" d="M514.37,247.93c-1.69.13-12.42.32-14.27.35-11.74.14-21.86-2.13-22.42-5.11a106.42,106.42,0,0,1-.3-37.5c.5-3,10.77-5.26,22.76-5.1,1.88,0,12.83.21,14.55.34A104.56,104.56,0,0,0,514.37,247.93Z"/><path class="cls-18" d="M516,200.91c1.32,0,2.24.66,2,1.44a104.32,104.32,0,0,0-.36,44.15c.16.78-.75,1.42-2,1.44h0c-1.29,0-2.48-.61-2.65-1.39a104.46,104.46,0,0,1,.29-44.25c.17-.79,1.38-1.4,2.7-1.39Z"/><path class="cls-30" d="M516.51,247.91a30.81,30.81,0,0,1-3.08.21c-2.56,0-5.2-2.3-5.71-5.23a104.85,104.85,0,0,1,.17-36.93,6.37,6.37,0,0,1,5.84-5.23,29.19,29.19,0,0,1,3.14.22A104.3,104.3,0,0,0,516.51,247.91Z"/><path class="cls-22" d="M445.28,212.59s-.08,3.09-14.58,3.1S394.89,212,394.89,212l33.46-3.26S441.2,208.15,445.28,212.59Z"/><path class="cls-22" d="M406.3,213.11c-6.89.23-9.75,3.89-12.45,5.08a48.61,48.61,0,0,0-5.38,2.95c1.45-3.1,3.67-3.26,4.76-4.28s.81-.52-1.65-.62c-1.4-.06-3.78,2.55-5.51,4a5.54,5.54,0,0,1-2.45,1.39,31.4,31.4,0,0,1,3.93-4.76,35.45,35.45,0,0,1,6.8-5.14c1.45-.64,6.06-.95,9.36-.61C407.43,211.53,411.27,213,406.3,213.11Z"/><path class="cls-22" d="M394.72,211.88s-5.24,1.56-6.14,2.31c-.63.52-3.24,3.52-3.24,3.52a6.78,6.78,0,0,0,3.07-1.53A59.94,59.94,0,0,1,394.72,211.88Z"/><path class="cls-39" d="M438.72,206.32s13.38.4,12.73,8.59c-.36,4.66-3.36,6.38-7.4,6.18-7.52-.36-16.05-1.18-16.05-1.18l-4.21-12.55Z"/><path class="cls-39" d="M441.55,207.36l11.67-42.48s1.72-6.23,4.94-5.18c4.63,1.5,2.53,6.61,2.23,9.62-.61,6.11,0,8.74-3.71,23.57-2.3,9.14-4.21,19.64-6.28,25.67-1.43,4.16-4.29-1.62-8.38-3.11C434.39,212.65,441.55,207.36,441.55,207.36Z"/><path class="cls-40" d="M464.2,151.16a16.8,16.8,0,0,0,20.22,12.91,17.35,17.35,0,0,0,12.95-20.57,16.81,16.81,0,0,0-20.23-12.91A17.34,17.34,0,0,0,464.2,151.16Z"/><path class="cls-40" d="M448.55,141.66a12.78,12.78,0,0,0,15.26,10l1.8-6.83a13.18,13.18,0,0,0,9.67-15.74l-1-4.82a12.77,12.77,0,0,0-15.26-10l-3.12.72a13.19,13.19,0,0,0-9.68,15.74Z"/><path class="cls-24" d="M449.43,121.6a26.68,26.68,0,0,0,1.08,3.55c3.06,8,9.29,13.12,14.77,12.66a40.59,40.59,0,0,0,3.94,9.55c1.7,3,6.14,5.61,6.14,5.61,2.16,5.56-19.42,24.18-20.34,23.69-2-1,1.55-14.4,5.08-18.54,1.65-1.94,3.34-4.23,3.38-5.54.12-4.59-1.29-5.57-3.44-7.67A10.18,10.18,0,0,0,452,143a1.4,1.4,0,0,1-1.15-.23,9.32,9.32,0,0,1-1-2.6l-2.3-10.6A9.5,9.5,0,0,1,449.43,121.6Z"/><path class="cls-13" d="M471.8,239.87s-5.53,5.16-7.08,5.62c-2.08.61-7.91-2-7.91-2s1.61-26.77,1-37.38-3-13.67-2.74-16.95c.45-5.23-3.68-7.91-2.46-11.9s4.28-18.34,4.49-16.35c1.8,17,8.11,3.88,9.37,1.83C467.17,161.64,471.8,239.87,471.8,239.87Z"/><path class="cls-41" d="M460.25,156.38s-7.32,5.53-7.21,8.08-3.78,10.11-2.21,21.46c1.79,13,2.46,21.65,2.09,29.92s-4.06,15.43-4.19,25.6c-.1,8,1.68,8.68,1.68,8.68a6.23,6.23,0,0,0,6.27-1.42c2.87-2.72,2.36-30,1.93-36.87s-2.51-23-3-27.76a52.26,52.26,0,0,1,.6-13.27,57.94,57.94,0,0,1,3.07-11.5c.15-.37,2.05-1.94,2.17-2.23C462,155.84,460.85,155.69,460.25,156.38Z"/><path class="cls-39" d="M462.2,153.6s1.52-.32.22,1.47a3.86,3.86,0,0,0-.75,1.85s-.65-.71-1.64.31-2.32,2.08-2.32,2.08a25.91,25.91,0,0,1,1.12-2.85C459.57,155.77,462.2,153.6,462.2,153.6Z"/><path class="cls-40" d="M469,174.46A17.56,17.56,0,0,0,490.16,188a18.12,18.12,0,0,0,13.52-21.49A17.56,17.56,0,0,0,482.56,153,18.12,18.12,0,0,0,469,174.46Z"/><polygon class="cls-24" points="432.52 331.44 435.83 357.69 421.49 364.47 413.52 366.21 427.66 355.32 423.03 331.64 432.52 331.44"/><path class="cls-25" d="M436.77,361.64l-3.11.84-2.09-1.94-11.46,5.74-10.17,2.4a2,2,0,0,1,.22-1.27c1.28-1.66,8.4-5.36,8.4-5.36s.11,2.43,1.12,2.5,9.8-4.53,11.83-5.81c3.5-2.2,4.15-3.57,4.42-3.4C436.63,355.79,436.77,361.64,436.77,361.64Z"/><polygon class="cls-24" points="397.88 294.94 386.49 317.31 370.72 316.51 362.88 314.26 380.29 311.32 389.8 292.21 397.88 294.94"/><path class="cls-25" d="M385.55,321.26l-3.13-.73-1-2.72-14.14-.21-8.44-2a7.12,7.12,0,0,1,1.65-1.4c1.88-.78,8.56-1.18,8.56-1.18s-.71,1.9.16,2.44,10.58.87,13,.7c4.09-.29,5.28-1.19,5.44-.92C388,316,385.55,321.26,385.55,321.26Z"/><path class="cls-34" d="M481.17,228.05l-8.51,3.81L469,243.3,414.26,234s-5.57-1.77-9.12,7.31c-5.05,12.92-17.9,53.07-17.9,53.07l8.13,8.77,25.52-45.37s52.28,25.29,69.52,19.83c6.62-2.1,11.67-14.14,10.73-26.31a160.32,160.32,0,0,0-2.59-18.3Z"/><path class="cls-23" d="M473.77,277.32l-41.84-3.1,3.6,66.56-12.34.41-9.11-78s2.46-11.6,10.45-9.85S451.85,270.4,473.77,277.32Z"/><path class="cls-41" d="M468.49,245s-1-27.08-1.78-39.93-.6-37.63-.76-40.72a38.65,38.65,0,0,1,.65-7.45s3.79-6.65,8-6.07c3.71.51,9.43,5.83,13,8.3s3.11,47.69,3.29,50c.63,8.23,5.38,16.35,9,24.25,2.3,5.07,2.83,13.07,2.83,13.07S481.42,242.16,468.49,245Z"/><polygon class="cls-39" points="473.29 148.67 470.29 151.72 466.06 156.39 468.2 161.64 475.66 150.85 473.29 148.67"/><path class="cls-24" d="M479,219.43s-.46,3.31-17.66,1.36-42-8.82-42-8.82l40.06,1S474.69,214.08,479,219.43Z"/><path class="cls-24" d="M432.74,214.7c-8.21-.7-12,2.85-15.35,3.77a60.75,60.75,0,0,0-6.71,2.44c2.07-3.13,4.72-3,6.13-4s1-.44-1.88-.89c-1.66-.26-4.78,2.24-7,3.58a6.83,6.83,0,0,1-3.07,1.17,34.3,34.3,0,0,1,5.2-4.6,41.59,41.59,0,0,1,8.65-4.61c1.8-.49,7.3-.2,11.17.62C434.26,213.14,438.65,215.2,432.74,214.7Z"/><path class="cls-24" d="M419.15,211.79s-6.39,1-7.54,1.65c-.81.48-4.25,3.36-4.25,3.36a8.39,8.39,0,0,0,3.82-1.23C412.62,214.49,419.15,211.79,419.15,211.79Z"/><path class="cls-39" d="M472,211.78l1.91-41.9s2.2-8.78,5.39-10.8c3.79-2.39,9,2,9,2s2.66,6.54.87,37.44c-1.19,20.67-3,31.37-12.55,29.86C467.7,227,457.69,225,457.69,225l-3.56-14.1Z"/><path class="cls-42" d="M437.77,222.19l0-.06,0-2.08H354.29v2.08a.11.11,0,0,0,0,.06l.21.39c1.07,1.8,3,2.13,5.2,2.13h72.65c2.2,0,4.13-.33,5.2-2.13Z"/><path class="cls-27" d="M417.65,222.55s0,0,0,0l.2.32a3.49,3.49,0,0,0,1.22,1.05h12.7c2.12,0,4-.26,5-1.71l.2-.32,0-.05,0-1H417.65Z"/><rect class="cls-27" x="364.67" y="220.53" width="41.71" height="1.47"/><path class="cls-43" d="M417.18,220l-10.82-42.29a2.74,2.74,0,0,0-2.47-2H345.32a1.49,1.49,0,0,0-1.44,2L354.7,220Z"/><path class="cls-27" d="M384.06,197.82c.56,2.15-.69,3.91-2.79,3.91a5.32,5.32,0,0,1-4.79-3.91c-.55-2.16.7-3.92,2.79-3.92A5.31,5.31,0,0,1,384.06,197.82Z"/><polygon class="cls-44" points="179.63 369.99 188.17 369.99 174.07 229.22 161.69 229.22 179.63 369.99"/><polygon class="cls-45" points="162.51 235.71 179.09 279.15 174.39 232.4 174.07 229.22 163.25 229.22 162.51 235.71"/><polygon class="cls-44" points="89.92 369.99 81.38 369.99 95.48 229.22 107.86 229.22 89.92 369.99"/><polygon class="cls-45" points="107.04 235.71 101.6 278.34 95.16 232.4 95.48 229.22 106.3 229.22 107.04 235.71"/><polygon class="cls-44" points="453.57 369.99 445.03 369.99 459.13 229.22 471.51 229.22 453.57 369.99"/><polygon class="cls-45" points="470.69 235.71 465.25 278.34 458.81 232.4 459.13 229.22 469.95 229.22 470.69 235.71"/><polygon class="cls-44" points="543.28 369.99 551.82 369.99 537.73 229.22 525.34 229.22 543.28 369.99"/><polygon class="cls-45" points="526.16 235.71 542.75 279.15 538.04 232.4 537.73 229.22 526.9 229.22 526.16 235.71"/><rect class="cls-18" x="287.23" y="224.65" width="262.45" height="8.23"/><rect class="cls-46" x="85.29" y="224.65" width="366.15" height="8.23"/><path class="cls-4" d="M183.28,107a4.92,4.92,0,0,0,4.84,5h3.23v11.64L202.64,112h37.12a4.92,4.92,0,0,0,4.84-5V65.44a4.92,4.92,0,0,0-4.84-5H188.12a4.92,4.92,0,0,0-4.84,5Z"/><path class="cls-8" d="M293.32,131.12a4.92,4.92,0,0,1-4.84,5h-3.23v11.64L274,136.12H236.84a4.92,4.92,0,0,1-4.84-5V89.53a4.91,4.91,0,0,1,4.84-5h51.64a4.92,4.92,0,0,1,4.84,5Z"/><rect class="cls-14" x="241.68" y="99.51" width="41.96" height="3.33"/><rect class="cls-14" x="241.68" y="107.83" width="41.96" height="3.33"/><rect class="cls-14" x="241.68" y="116.15" width="41.96" height="3.33"/><path class="cls-19" d="M469.15,23.3H430.67a4.34,4.34,0,0,0-4.27,4.41V58.56A4.34,4.34,0,0,0,430.67,63h12.84l2.14,2.2,4.27,4.41,4.27-4.41,2.14-2.2h12.82a4.35,4.35,0,0,0,4.28-4.41V27.71A4.35,4.35,0,0,0,469.15,23.3Z"/><path class="cls-14" d="M464.88,45.34V40.93h-4.5a10.87,10.87,0,0,0-1.56-3.87L462,33.78l-3-3.11L455.8,34a10.29,10.29,0,0,0-3.75-1.61V27.71h-4.28v4.63A10.24,10.24,0,0,0,444,34l-3.19-3.28-3,3.11L441,37.06a11.25,11.25,0,0,0-1.56,3.87H435v4.41h4.49A11.2,11.2,0,0,0,441,49.2l-3.18,3.29,3,3.11L444,52.32a10.54,10.54,0,0,0,3.75,1.61v4.63h4.28V53.93a10.46,10.46,0,0,0,3.75-1.61L459,55.6l3-3.11-3.18-3.29a10.83,10.83,0,0,0,1.56-3.86Zm-15,4.4a6.61,6.61,0,1,1,6.41-6.61A6.51,6.51,0,0,1,449.91,49.74Z"/><path class="cls-13" d="M230.82,66.23c.28-10.39-5.57-19-16.57-19.29S197,54.88,196.69,65.28c-.21,8.1,5.22,11.07,9.73,17.93.89,1.35-.18,6.55-.18,6.55l13.75.39s-.79-5.25.17-6.56C225,77,230.61,74.34,230.82,66.23Z"/><path class="cls-47" d="M212.07,86.45c-6.22-9.47-13.73-13.57-13.44-24.77a34.58,34.58,0,0,1,.89-6.94,21.73,21.73,0,0,0-2.83,10.54c-.21,8.1,5.22,11.07,9.73,17.93.89,1.35-.18,6.55-.18,6.55l6.31.18A6.82,6.82,0,0,0,212.07,86.45Z"/><path class="cls-20" d="M206,89.75l-.06,2a5.8,5.8,0,0,0,5.54,6l2.84.08a5.78,5.78,0,0,0,5.85-5.7l0-2Z"/><polyline class="cls-48" points="206.24 64.93 208.49 62.06 210.59 65.06 212.85 62.19 214.95 65.18 217.21 62.31 219.31 65.3 221.57 62.43 223.69 65.42"/><polyline class="cls-48" points="208.69 67.57 211.58 77.35 211.26 89.65"/><polyline class="cls-48" points="219.35 67.87 215.94 77.47 215.62 89.78"/><polygon class="cls-49" points="218.7 92.64 209.81 92.39 209.85 90.87 218.74 91.12 218.7 92.64"/><polygon class="cls-49" points="216.14 95.32 209.74 95.14 209.78 93.62 216.18 93.8 216.14 95.32"/><rect class="cls-14" x="393.44" y="94.4" width="2.05" height="7.31"/><rect class="cls-14" x="393.44" y="85.97" width="2.05" height="5.11"/><rect class="cls-14" x="391.39" y="85.77" width="6.16" height="2.12"/><path class="cls-14" d="M396,101.18a1.54,1.54,0,1,1-1.54-1.59A1.56,1.56,0,0,1,396,101.18Z"/><polygon class="cls-14" points="400.33 93.94 398.88 92.45 401.96 89.28 403.41 90.77 400.33 93.94"/><rect class="cls-14" x="380.11" y="99.52" width="9.23" height="2.12"/><rect class="cls-14" x="382.16" y="104.81" width="9.23" height="2.12"/><path class="cls-14" d="M384.18,99.52a10.56,10.56,0,0,0,.14,3.17h2.1a8.57,8.57,0,0,1-.25-2,10.36,10.36,0,0,1,.08-1.13Z"/><path class="cls-14" d="M394.42,90a10.36,10.36,0,0,0-9.8,7.38h2.18a8.27,8.27,0,0,1,7.62-5.26,8.51,8.51,0,0,1,0,17,8.23,8.23,0,0,1-7.19-4.35H385a10.31,10.31,0,0,0,9.47,6.46,10.63,10.63,0,0,0,0-21.25Z"/><rect class="cls-14" x="380.11" y="94.23" width="3.08" height="2.11"/><path class="cls-50" d="M107.88,75.4a3.85,3.85,0,0,1-3.79-3.91V37.62a3.85,3.85,0,0,1,3.79-3.91h48a3.85,3.85,0,0,1,3.79,3.91V71.49a3.85,3.85,0,0,1-3.79,3.91Z"/><path class="cls-50" d="M107.88,75.4a3.85,3.85,0,0,1-3.79-3.91V37.62a3.85,3.85,0,0,1,3.79-3.91h48a3.85,3.85,0,0,1,3.79,3.91V71.49a3.85,3.85,0,0,1-3.79,3.91Z"/><path class="cls-51" d="M155.9,33.71h-48a3.85,3.85,0,0,0-3.79,3.91v2.05L148.21,75.4h7.69a3.85,3.85,0,0,0,3.79-3.91V37.62A3.85,3.85,0,0,0,155.9,33.71Z"/><path class="cls-52" d="M131.89,59.77l27.8-19.94V37.62a3.85,3.85,0,0,0-3.79-3.91h-48a3.85,3.85,0,0,0-3.79,3.91v2.21Z"/></g></g></svg>